<svg xmlns="http://www.w3.org/2000/svg" viewBox="0 0 512 512" width="512" height="512" role="img" aria-label="ShoeAR customer app icon">
  <defs>
    <linearGradient id="bg" x1="0" y1="0" x2="1" y2="1">
      <stop offset="0" stop-color="#4f46e5"/>
      <stop offset="1" stop-color="#7c73f0"/>
    </linearGradient>
  </defs>
  <rect width="512" height="512" rx="115" fill="url(#bg)"/>
  <g transform="translate(82.75 77.5) scale(3.5)">
    <g fill="#ffffff">
      <path d="M16 58 L16 45 Q16 40 22 39 L28 38 Q33 37.5 35 43 Q37 48 42 46.5 L45 36 Q46.5 32 50 33.5 Q53 35 51.5 39 L50 47 Q49.5 51 54 52 L73 50.5 Q84 52.5 89 60 Q90.5 62.5 87 62.5 L18 62.5 Q16 62.5 16 58 Z"/>
      <path d="M11 62 Q7 62 7 65.5 Q7 70 14 70 L83 70 Q91 70 92 64.5 Q92.5 61.5 88 61.5 L15 61.5 Q11 61.5 11 62 Z"/>
    </g>
    <g stroke="#4338ca" stroke-width="1.5" stroke-linecap="round" fill="none">
      <path d="M42 40 L50.5 41"/>
      <path d="M41.5 43 L50.5 44"/>
      <path d="M42 46 L50 47"/>
    </g>
  </g>
</svg>
