<svg xmlns="http://www.w3.org/2000/svg" viewBox="0 0 512 512" width="512" height="512" role="img" aria-label="ShoeAR delivery app icon">
  <defs>
    <linearGradient id="bg" x1="0" y1="0" x2="1" y2="1">
      <stop offset="0" stop-color="#4f46e5"/>
      <stop offset="1" stop-color="#7c73f0"/>
    </linearGradient>
  </defs>
  <rect width="512" height="512" rx="115" fill="url(#bg)"/>
  <!-- motion / speed lines behind the truck -->
  <g fill="#ffffff" opacity="0.5">
    <rect x="40" y="212" width="110" height="13" rx="6"/>
    <rect x="24" y="250" width="132" height="13" rx="6"/>
    <rect x="40" y="288" width="110" height="13" rx="6"/>
  </g>
  <!-- delivery truck (side view, moving right) -->
  <g transform="translate(83.2 72.4) scale(3.6)">
    <!-- cargo box -->
    <rect x="14" y="33" width="40" height="27" rx="3" fill="#ffffff"/>
    <!-- cab with slanted windshield -->
    <path d="M54 60 L54 44 L66 44 L82 53 L82 60 Z" fill="#ffffff"/>
    <path d="M68 47 L78 47 L82 52.5 L68 52.5 Z" fill="#4338ca"/>
    <!-- wheels -->
    <circle cx="30" cy="62" r="7" fill="#ffffff"/>
    <circle cx="30" cy="62" r="3" fill="#4338ca"/>
    <circle cx="72" cy="62" r="7" fill="#ffffff"/>
    <circle cx="72" cy="62" r="3" fill="#4338ca"/>
  </g>
</svg>
