<svg xmlns="http://www.w3.org/2000/svg" viewBox="0 0 100 100" width="100" height="100" role="img" aria-label="ShoeAR">
  <g transform="translate(0 6)">
    <g fill="#ffffff">
      <path d="M12 60 L12 50 Q12 44 19 42 L30 40 Q36 39 38.5 34 L41 29.5 Q42.5 27 45 28 Q47 29 46.5 32 L45.6 42 Q45.4 46 49 46.8 L73 50 Q85 52 90 58.5 Q92 60.5 88.5 60.5 Z"/>
      <path d="M8 65.5 Q6 61.5 12.5 61.5 L88 61.5 Q95 61.5 92 65.5 Q90.5 68 83 68 L15 68 Q8.5 68 8 65.5 Z"/>
    </g>
    <g stroke="#4338ca" stroke-width="1.4" stroke-linecap="round" fill="none">
      <path d="M38.5 34.5 L45.6 36"/>
      <path d="M38 38.5 L45.2 40"/>
      <path d="M38 42.5 L45 43.8"/>
    </g>
  </g>
</svg>
